# xmcd
#
# Track frame offsets:
#	150
#	15010
#	33542
#	47781
#	62330
#	80879
#	95630
#	107016
#	120859
#	132535
#	163368
#
# Disc length: 2468 seconds
#
# Revision: 1
# Processed by: cddbd v1.4PL0 Copyright (c) Steve Scherf et al.
# Submitted via: audiograbber 1.81.01
#
DISCID=8b09a20b
DTITLE=James Rider - FourTwenty A.M.
DYEAR=1999
DGENRE=
TTITLE0=keep it simple
TTITLE1=aint it wrong
TTITLE2=finish my business
TTITLE3=wastin my time
TTITLE4=dirty girls
TTITLE5=one of those times
TTITLE6=always something wrong
TTITLE7=dancing girl song
TTITLE8=she dont give a damn
TTITLE9=last will and testament
TTITLE10=??
EXTD=
EXTT0=
EXTT1=
EXTT2=
EXTT3=
EXTT4=
EXTT5=
EXTT6=
EXTT7=
EXTT8=
EXTT9=
EXTT10=
PLAYORDER=
